<svg width="52" height="46" viewBox="0 0 52 46" fill="none" xmlns="http://www.w3.org/2000/svg">
<path d="M43.9395 1.56641L47.168 3.42188L47.9209 2.98926L48.6709 2.55762V4.28516L49.4238 4.71875L50.1768 5.15137L49.4248 5.58594L48.6709 6.02051V17.1543L48.6602 17.5088C48.6094 18.3361 48.3843 19.1676 48.0273 19.9912C47.6574 20.9056 47.1679 21.7593 46.5605 22.5488L46.2129 23L46.1992 22.9863C45.8281 23.4119 45.4237 23.7867 44.9824 24.1025L45.0059 24.126L44.4424 24.4521L36.5508 29.0176V29.5459L43.4395 25.5674L43.6885 25.4229L43.9385 25.5664L47.168 27.4229L47.9209 26.9893L48.6709 26.5557V28.2852L49.4229 28.7188L50.1748 29.1514L49.4238 29.585L48.6709 30.0195V34.0205L48.4209 34.1641L33.0713 43.0195V44.7471L32.3223 44.3164L31.5713 43.8838L30.8213 44.3184L30.0713 44.752V43.0215L26.8418 41.167L26.5908 41.0225V28.1543C26.5908 27.2121 26.8006 26.2747 27.1807 25.3525L27.1816 25.3486L27.3213 25.0176L27.3252 25.0098C27.6804 24.2074 28.132 23.462 28.6797 22.7773C29.3002 21.9755 30.0099 21.3163 30.8232 20.8545L32.0361 20.1514L31.5723 19.8838L30.8213 20.3193L30.0713 20.7539V19.0215L26.8418 17.167L26.5908 17.0225V13.0215L25.8379 12.5898L25.085 12.1572L25.8369 11.7236L26.5908 11.2871V9.56152L28.0889 10.4229L43.4404 1.56738L43.6904 1.42285L43.9395 1.56641ZM28.5908 12.4424V15.8643L31.5703 17.5771L39.9609 12.7314L40.7109 12.2979V17.4424L40.4609 17.5869L31.8213 22.5869L31.8174 22.5898C31.2748 22.8965 30.7499 23.3663 30.248 24.0186L30.2422 24.0264C29.7399 24.6543 29.3371 25.3449 29.0352 26.0996L29.0332 26.1055C28.7343 26.828 28.5908 27.5099 28.5908 28.1543V39.8643L31.5703 41.5771L46.6709 32.8652V29.4434L43.6914 27.7305L35.3008 32.5771L34.5508 33.0107V27.8662L34.8008 27.7217L43.4414 22.7217L43.4453 22.7188C43.9892 22.4113 44.4997 21.9543 44.9727 21.332L44.9746 21.3301C45.4804 20.6726 45.8848 19.9656 46.1875 19.209L46.1895 19.2021L46.1924 19.1953C46.4762 18.5403 46.6284 17.941 46.6631 17.3945L46.6709 17.1543V5.44336L43.6914 3.73047L28.5908 12.4424ZM33.0713 19.0195V19.5527L38.7109 16.2891V15.7617L33.0713 19.0195Z" fill="black" stroke="white"/>
<path d="M15.417 2.23273C16.6229 1.5538 18.0157 1.30607 19.3145 2.05402L19.3135 2.05499L22.7939 4.05402L23.2393 4.30988L23.208 4.3587C24.1978 5.13481 24.5869 6.31429 24.5869 7.55499V14.0228L24.3359 14.1673L21.1074 16.0218V16.6839L22.7939 17.6536L23.2393 17.9095L23.208 17.9583C24.1979 18.7344 24.5869 19.9139 24.5869 21.1546V30.7542C24.5869 31.694 24.3518 32.6403 23.9473 33.5775L23.9482 33.5784C23.6327 34.3611 23.2274 35.0974 22.7383 35.7884L22.7451 35.7952L22.4814 36.1429C21.8765 36.9387 21.171 37.5905 20.3545 38.054L11.7178 43.053L11.6865 43.0706L11.6758 43.0745C10.4692 43.7538 9.07676 44.0029 7.77734 43.2532L7.77539 43.2523L4.2998 41.2552L4.24219 41.222L4.23145 41.2112C2.97135 40.4479 2.5069 39.1275 2.50684 37.7542V34.6214L1.75098 34.1878L0.996094 33.7542L1.75098 33.3206L2.50684 32.886V31.1624L3.25586 31.5931L4.00586 32.0237L6.73926 30.4544L7.2373 30.1673L7.4873 30.0237L7.7373 30.1673L8.23535 30.4544H8.23438L10.9512 32.0159L14.627 29.889V27.7689L11.7188 29.4525L11.7178 29.4515L11.7109 29.4564C10.5739 30.106 9.26589 30.3776 8.01953 29.7806L8.01074 29.7767L8.00293 29.7728L7.79492 29.6634L7.77734 29.6536L7.77539 29.6526L4.2998 27.6556L4.24219 27.6224L4.23145 27.6116C2.97135 26.8483 2.5069 25.5279 2.50684 24.1546V14.555C2.50684 13.6087 2.71848 12.6663 3.10156 11.7405C3.42797 10.9286 3.8501 10.1724 4.36719 9.47491L4.37207 9.46808L4.58984 9.18488L4.59082 9.1839C5.21259 8.37906 5.9235 7.71631 6.73926 7.25323L15.376 2.25616L15.4072 2.23761L15.417 2.23273ZM7.74121 43.2308C7.74209 43.2314 7.74309 43.232 7.74414 43.2327L7.77441 43.2513C7.76204 43.244 7.75219 43.2378 7.74609 43.2337C7.74435 43.2325 7.74256 43.2317 7.74121 43.2308ZM18.3174 3.78741C17.8301 3.5064 17.2141 3.50819 16.376 3.98663L16.377 3.98761L7.7373 8.98761L7.7334 8.98956C7.1907 9.29631 6.66602 9.76676 6.16406 10.4193L6.1582 10.4271C5.65588 11.055 5.25305 11.7456 4.95117 12.5003L4.94922 12.5052C4.65022 13.2278 4.50684 13.9105 4.50684 14.555V24.1448L4.51074 24.3294L4.53516 24.6292C4.62102 25.2909 4.89445 25.689 5.29688 25.9212H5.2959L8.77637 27.9212H8.77734C9.23711 28.1863 9.80516 28.1978 10.5645 27.805L10.7266 27.7161L15.877 24.7357L16.627 24.3011V31.0423L16.377 31.1868L11.2041 34.18L10.9551 34.3245L10.7051 34.181L7.48633 32.3304L4.50684 34.0433V37.7542C4.5069 38.7095 4.80932 39.2394 5.29688 39.5208H5.2959L8.77637 41.5208H8.77734C9.20386 41.7668 9.72783 41.7956 10.4141 41.4778L10.7188 41.3196L19.3574 36.3216L19.3613 36.3187C19.9053 36.0111 20.4157 35.5542 20.8887 34.9319L20.8906 34.93C21.3964 34.2725 21.8009 33.5655 22.1035 32.8089L22.1055 32.8021L22.1084 32.7952C22.4344 32.0428 22.5869 31.364 22.5869 30.7542V21.1546C22.5869 20.2074 22.2772 19.6762 21.7637 19.3909L21.7568 19.387C21.5316 19.2572 21.2974 19.1959 21.0469 19.1976L21.0439 18.9544L18.3184 17.388L18.3174 17.387C17.8301 17.106 17.2141 17.1078 16.376 17.5862L16.377 17.5872L11.2168 20.5726L10.4668 21.0062V14.2659L10.7168 14.1224L15.877 11.136L16.627 10.7015V12.8646L19.6064 14.5775L22.5869 12.8646V7.55499C22.5869 6.60781 22.2772 6.07662 21.7637 5.79132L21.7568 5.78741C21.5316 5.65751 21.2975 5.59632 21.0469 5.59796L21.0439 5.3548L18.3184 3.78839L18.3174 3.78741ZM7.73535 29.6273C7.73535 29.6273 7.73638 29.6276 7.7373 29.6282C7.73864 29.6292 7.74121 29.6311 7.74414 29.6331L7.77441 29.6517C7.76188 29.6443 7.75193 29.6381 7.74609 29.6341C7.74283 29.6319 7.73991 29.6304 7.73828 29.6292L7.73633 29.6273H7.73535ZM12.4668 15.4183V17.5394L15.376 15.8568L15.3828 15.8519C15.8395 15.5909 16.3239 15.3905 16.8213 15.2835L14.8779 14.1673L14.7529 14.095L12.4668 15.4183Z" fill="black" stroke="white"/>
</svg>
