<svg width="189" height="51" viewBox="0 0 189 51" fill="none" xmlns="http://www.w3.org/2000/svg" style="">
<path d="M179.322 11.0848C180.382 10.4854 181.589 10.2148 182.755 10.6707L182.989 10.7723L182.999 10.7771L183.008 10.782L183.216 10.8924L183.238 10.9041L183.258 10.9178L186.673 12.9021L186.681 12.906L186.688 12.9109L186.887 13.0359L186.896 13.0408L186.903 13.0467C188.044 13.8265 188.462 15.0923 188.462 16.4002V36.4637L188.213 36.6082L185.021 38.4627V40.1922L184.272 39.7615L183.525 39.3318L182.772 39.7703L182.021 40.2068V39.9939C181.639 40.3437 181.231 40.6467 180.794 40.8953L180.795 40.8963L177.355 42.8973L177.353 42.8992L177.346 42.9031L177.014 43.0926L177.002 43.0808C175.87 43.6329 174.602 43.7861 173.412 43.0994C173.406 43.0958 173.4 43.0918 173.396 43.0887L169.935 41.1004L169.877 41.0672L169.869 41.0594C168.607 40.2963 168.142 38.974 168.142 37.5994V31.9998C168.142 31.0576 168.351 30.1201 168.731 29.198L168.732 29.1941L168.872 28.8631L168.876 28.8553C169.231 28.0529 169.683 27.3075 170.23 26.6228C170.639 26.0944 171.087 25.6293 171.577 25.241L168.393 23.4119L168.142 23.2683V19.2664L167.389 18.8348L166.635 18.4021L167.388 17.9685L168.142 17.533V15.8074L169.64 16.6687L179.292 11.1014L179.305 11.0935L179.322 11.0848ZM182.231 12.6326C181.744 12.3518 181.129 12.3544 180.291 12.8328L170.142 18.6892V22.1101L173.121 23.823L179.792 19.9744L180.542 19.5418V22.2889L180.292 22.4324L173.372 26.4324L173.368 26.4353C172.826 26.742 172.301 27.2118 171.799 27.8641L171.793 27.8719C171.291 28.4997 170.888 29.1905 170.586 29.9451L170.584 29.951C170.285 30.6735 170.142 31.3554 170.142 31.9998V37.5994C170.142 38.5542 170.444 39.0844 170.931 39.366L174.411 41.366L174.412 41.367C174.9 41.6481 175.515 41.6451 176.354 41.1658L179.791 39.1678L179.796 39.1639C180.343 38.8544 180.87 38.3942 181.371 37.7674C181.621 37.4416 181.847 37.1032 182.047 36.7527L182.295 36.3172L182.729 36.5672L183.521 37.0213L186.462 35.3123V16.4002C186.462 15.5012 186.193 14.9828 185.767 14.6932V14.6922L185.656 14.6238H185.655L182.231 12.6326ZM180.542 31.8885L180.292 32.033L176.852 34.0213L176.102 34.4539V31.7117L176.352 31.5672L179.792 29.5779L180.542 29.1443V31.8885Z" stroke="white" class="sKurjMEK_0"></path>
<path d="M158.731 10.98C159.817 10.417 161.04 10.2135 162.208 10.773L162.218 10.7769L162.227 10.7818L162.435 10.8921L162.457 10.9038L162.477 10.9175L165.892 12.9019L165.899 12.9058L165.906 12.9107L166.105 13.0357L166.114 13.0406L166.122 13.0464C167.262 13.8261 167.681 15.0921 167.681 16.3999V29.9995C167.681 30.9239 167.467 31.8619 167.093 32.7974C166.776 33.5899 166.367 34.3343 165.872 35.0327L165.879 35.0396L165.615 35.3872C165.112 36.0493 164.538 36.6094 163.89 37.0464L163.898 37.064L163.491 37.2993L157.32 40.8657V46.0669L157.07 46.2114L156.569 46.5005H156.568L153.841 48.0669V49.7925L153.092 49.3609L152.341 48.9282L151.59 49.3609L150.841 49.7925V48.0669L148.113 46.5005H148.112L147.61 46.2114L147.36 46.0669V19.2671L146.604 18.8345L145.85 18.4009L146.604 17.9673L147.36 17.5318V15.8081L148.109 16.2378L148.859 16.6685L152.092 14.813L152.341 14.6704L152.59 14.814L152.936 15.0122C153.557 14.2117 154.268 13.5544 155.082 13.0943L158.507 11.1031L158.51 11.1011L158.517 11.0972L158.731 10.98ZM161.45 12.6323C160.963 12.3515 160.347 12.3553 159.509 12.8345L156.071 14.8325L156.066 14.8355C155.524 15.1423 154.999 15.6127 154.497 16.2652L154.491 16.272C154.242 16.5836 154.017 16.9104 153.817 17.2525L153.567 17.6822L153.137 17.4341L152.34 16.9761L149.36 18.689V44.9107L152.34 46.6236L155.32 44.9107V39.7114L155.57 39.5669L162.49 35.5669L162.494 35.565C163.038 35.2574 163.55 34.8003 164.022 34.1782L164.024 34.1753C164.467 33.6003 164.83 32.9868 165.117 32.3355L165.239 32.0464C165.5 31.3938 165.64 30.7942 165.673 30.2456L165.681 29.9995V16.3999C165.681 15.5011 165.411 14.9825 164.985 14.6929V14.6919L164.875 14.6236H164.874L161.45 12.6323ZM159.761 30.2886L159.511 30.4331L156.07 32.4214L155.32 32.855V22.1118L155.57 21.9673L159.011 19.9781L159.761 19.5445V30.2886ZM157.32 23.2652V29.3872L157.761 29.1323V23.0103L157.32 23.2652Z" stroke="white" class="sKurjMEK_1"></path>
<path d="M137.95 10.98C139.035 10.417 140.258 10.2135 141.427 10.773L141.437 10.7769L141.445 10.7818L141.653 10.8921L141.676 10.9038L141.695 10.9175L145.11 12.9019L145.118 12.9058L145.125 12.9107L145.324 13.0357L145.333 13.0406L145.341 13.0464C146.481 13.8261 146.899 15.0921 146.899 16.3999V29.9995C146.899 30.9239 146.686 31.8619 146.312 32.7974C145.994 33.5899 145.585 34.3343 145.091 35.0327L145.098 35.0396L144.834 35.3872C144.331 36.0493 143.756 36.6094 143.108 37.0464L143.117 37.064L142.71 37.2993L136.539 40.8657V46.0669L136.289 46.2114L135.788 46.5005H135.787L133.06 48.0669V49.7925L132.311 49.3609L131.56 48.9282L130.809 49.3609L130.06 49.7925V48.0669L127.332 46.5005H127.331L126.829 46.2114L126.579 46.0669V19.2671L125.823 18.8345L125.068 18.4009L125.823 17.9673L126.579 17.5318V15.8081L127.328 16.2378L128.078 16.6685L131.311 14.813L131.56 14.6704L131.809 14.814L132.154 15.0122C132.775 14.2117 133.487 13.5544 134.301 13.0943L137.726 11.1031L137.729 11.1011L137.735 11.0972L137.95 10.98ZM140.669 12.6323C140.181 12.3515 139.566 12.3553 138.728 12.8345L135.29 14.8325L135.285 14.8355C134.742 15.1423 134.218 15.6127 133.716 16.2652L133.71 16.272C133.461 16.5836 133.236 16.9104 133.036 17.2525L132.786 17.6822L132.355 17.4341L131.559 16.9761L128.579 18.689V44.9107L131.559 46.6236L134.539 44.9107V39.7114L134.789 39.5669L141.709 35.5669L141.713 35.565C142.257 35.2574 142.768 34.8003 143.241 34.1782L143.243 34.1753C143.685 33.6003 144.049 32.9868 144.336 32.3355L144.458 32.0464C144.718 31.3938 144.859 30.7942 144.892 30.2456L144.899 29.9995V16.3999C144.899 15.5011 144.63 14.9825 144.204 14.6929V14.6919L144.094 14.6236H144.093L140.669 12.6323ZM138.979 30.2886L138.729 30.4331L135.289 32.4214L134.539 32.855V22.1118L134.789 21.9673L138.229 19.9781L138.979 19.5445V30.2886ZM136.539 23.2652V29.3872L136.979 29.1323V23.0103L136.539 23.2652Z" stroke="white" class="sKurjMEK_2"></path>
<path d="M116.979 11.0848C118.038 10.4854 119.245 10.2148 120.411 10.6707L120.646 10.7723L120.655 10.7771L120.664 10.782L120.872 10.8924L120.895 10.9041L120.914 10.9178L124.329 12.9021L124.337 12.906L124.344 12.9109L124.543 13.0359L124.552 13.0408L124.56 13.0467C125.7 13.8265 126.118 15.0923 126.118 16.4002V36.4637L125.869 36.6082L122.678 38.4627V40.1922L121.929 39.7615L121.182 39.3318L120.429 39.7703L119.678 40.2068V39.9939C119.295 40.3437 118.887 40.6467 118.45 40.8953L118.451 40.8963L115.012 42.8973L115.009 42.8992L115.002 42.9031L114.67 43.0926L114.658 43.0808C113.526 43.6329 112.259 43.7861 111.068 43.0994C111.062 43.0958 111.057 43.0918 111.052 43.0887L107.591 41.1004L107.533 41.0672L107.525 41.0594C106.263 40.2963 105.798 38.974 105.798 37.5994V31.9998C105.798 31.0576 106.008 30.1201 106.388 29.198L106.389 29.1941L106.528 28.8631L106.532 28.8553C106.887 28.0529 107.339 27.3075 107.887 26.6228C108.296 26.0944 108.744 25.6293 109.233 25.241L106.049 23.4119L105.798 23.2683V19.2664L105.045 18.8348L104.291 18.4021L105.044 17.9685L105.798 17.533V15.8074L107.296 16.6687L116.948 11.1014L116.961 11.0935L116.979 11.0848ZM119.888 12.6326C119.4 12.3518 118.785 12.3544 117.947 12.8328L107.798 18.6892V22.1101L110.777 23.823L117.448 19.9744L118.198 19.5418V22.2889L117.948 22.4324L111.028 26.4324L111.024 26.4353C110.482 26.742 109.957 27.2118 109.455 27.8641L109.449 27.8719C108.947 28.4997 108.544 29.1905 108.242 29.9451L108.24 29.951C107.941 30.6735 107.798 31.3554 107.798 31.9998V37.5994C107.798 38.5542 108.1 39.0844 108.587 39.366L112.067 41.366L112.068 41.367C112.556 41.6481 113.171 41.6451 114.01 41.1658L117.447 39.1678L117.452 39.1639C117.999 38.8544 118.526 38.3942 119.027 37.7674C119.277 37.4416 119.503 37.1032 119.703 36.7527L119.951 36.3172L120.386 36.5672L121.177 37.0213L124.118 35.3123V16.4002C124.118 15.5012 123.849 14.9828 123.423 14.6932V14.6922L123.312 14.6238H123.312L119.888 12.6326ZM118.198 31.8885L117.948 32.033L114.508 34.0213L113.758 34.4539V31.7117L114.008 31.5672L117.448 29.5779L118.198 29.1443V31.8885Z" stroke="white" class="sKurjMEK_3"></path>
<path d="M100.607 1.41211L103.836 3.26758L104.589 2.83496L105.339 2.40332V4.13086L106.092 4.56445L106.845 4.99707L106.093 5.43164L105.339 5.86621V17L105.328 17.3545C105.277 18.1818 105.052 19.0133 104.695 19.8369C104.325 20.7513 103.836 21.605 103.229 22.3945L102.881 22.8457L102.867 22.832C102.496 23.2576 102.092 23.6324 101.65 23.9482L101.674 23.9717L101.11 24.2979L93.2188 28.8633V29.3916L100.107 25.4131L100.356 25.2686L100.606 25.4121L103.836 27.2686L104.589 26.835L105.339 26.4014V28.1309L106.091 28.5645L106.843 28.9971L106.092 29.4307L105.339 29.8652V33.8662L105.089 34.0098L89.7393 42.8652V44.5928L88.9902 44.1621L88.2393 43.7295L87.4893 44.1641L86.7393 44.5977V42.8672L83.5098 41.0127L83.2588 40.8682V28C83.2588 27.0578 83.4686 26.1204 83.8486 25.1982L83.8496 25.1943L83.9893 24.8633L83.9932 24.8555C84.3483 24.0531 84.7999 23.3077 85.3477 22.623C85.9682 21.8212 86.6779 21.162 87.4912 20.7002L88.7041 19.9971L88.2402 19.7295L87.4893 20.165L86.7393 20.5996V18.8672L83.5098 17.0127L83.2588 16.8682V12.8672L82.5059 12.4355L81.7529 12.0029L82.5049 11.5693L83.2588 11.1328V9.40723L84.7568 10.2686L100.108 1.41309L100.358 1.26855L100.607 1.41211ZM85.2588 12.2881V15.71L88.2383 17.4229L96.6289 12.5771L97.3789 12.1436V17.2881L97.1289 17.4326L88.4893 22.4326L88.4854 22.4355C87.9428 22.7422 87.4179 23.212 86.916 23.8643L86.9102 23.8721C86.4078 24.5 86.005 25.1906 85.7031 25.9453L85.7012 25.9512C85.4022 26.6737 85.2588 27.3556 85.2588 28V39.71L88.2383 41.4229L103.339 32.7109V29.2891L100.359 27.5762L91.9688 32.4229L91.2188 32.8564V27.7119L91.4688 27.5674L100.109 22.5674L100.113 22.5645C100.657 22.257 101.168 21.8 101.641 21.1777L101.643 21.1758C102.148 20.5183 102.553 19.8113 102.855 19.0547L102.857 19.0479L102.86 19.041C103.144 18.386 103.296 17.7867 103.331 17.2402L103.339 17V5.28906L100.359 3.57617L85.2588 12.2881ZM89.7393 18.8652V19.3984L95.3789 16.1348V15.6074L89.7393 18.8652Z" stroke="white" class="sKurjMEK_4"></path>
<path d="M63.4668 7.78022C64.6155 7.17227 65.9207 6.99184 67.1484 7.69917L67.1475 7.70015L70.6279 9.69917L70.6855 9.73237L70.6953 9.74214C71.9564 10.5056 72.4199 11.8267 72.4199 13.2001V31.6679L72.1689 31.8125L68.9404 33.6669V35.4082L68.1885 34.9707L67.4355 34.5322L66.6904 34.9619L65.9404 35.3935V33.6621L64.46 32.8017V36.2675L64.209 36.4121L60.9805 38.2666V39.9921L60.2314 39.5615L59.4805 39.1289L58.7295 39.5615L57.9805 39.9921V38.2666L56.5 37.416V40.8681L56.249 41.0126L53.0205 42.8671V44.5927L52.2715 44.1621L51.5205 43.7294L50.7695 44.1621L50.0205 44.5927V42.8671L46.791 41.0126L46.54 40.8681V19.2666L45.7842 18.8339L45.0293 18.4013L45.7842 17.9667L46.54 17.5312V15.8085L47.2891 16.2382L48.0391 16.6689L51.2715 14.8134L51.5205 14.6708L51.7695 14.8134L52.1162 15.0126C52.7374 14.2121 53.4477 13.5538 54.2617 13.0937L55.2275 12.5136L55.2441 12.5039L55.2617 12.4951C56.3993 11.8466 57.7061 11.5779 58.9443 12.1699C59.2546 11.5577 59.6246 10.9814 60.0537 10.4423L60.293 10.1435C60.8612 9.46421 61.5009 8.90157 62.2217 8.49409L63.2393 7.90718L63.4668 7.78022ZM66.1504 9.43354C65.6623 9.15193 65.0612 9.15604 64.2539 9.63081L64.25 9.63374L63.21 10.2333L63.2061 10.2353C62.6636 10.5419 62.1388 11.0123 61.6367 11.665L61.6309 11.6728C61.1285 12.3008 60.7256 12.9907 60.4238 13.7451L60.4219 13.7509C60.3233 13.9891 60.2425 14.2249 60.1768 14.457L60.002 15.0742L59.4463 14.7548L58.1914 14.0332H58.1904C57.7028 13.7519 57.087 13.7549 56.248 14.2343L55.2578 14.8291L55.2461 14.8359C54.7035 15.1427 54.1785 15.6123 53.6768 16.2646L53.6709 16.2724C53.4215 16.5841 53.1967 16.9108 52.9971 17.2529L52.7471 17.6816L52.3164 17.4345L51.5195 16.9765L48.54 18.6894V39.7099L51.5195 41.4228L54.5 39.7099V22.1123L54.749 21.9677L55.749 21.3867L56.5 20.9501V35.1103L59.4795 36.8232L62.46 35.1103V17.5117L62.709 17.3671L63.749 16.7636L64.5 16.3281V30.5117L67.4414 32.2216L70.4199 30.5097V13.2001C70.4199 12.3007 70.1509 11.7827 69.7246 11.4931V11.4921L69.6143 11.4238H69.6133L66.1514 9.43354H66.1504Z" stroke="white" class="sKurjMEK_5"></path>
<path d="M36.9395 11.0848C37.9993 10.4854 39.206 10.2148 40.3721 10.6707L40.6064 10.7723L40.6162 10.7771L40.625 10.782L40.833 10.8924L40.8555 10.9041L40.875 10.9178L44.29 12.9021L44.2979 12.906L44.3047 12.9109L44.5039 13.0359L44.5127 13.0408L44.5205 13.0467C45.6607 13.8265 46.0791 15.0923 46.0791 16.4002V36.4637L45.8301 36.6082L42.6387 38.4627V40.1922L41.8896 39.7615L41.1426 39.3318L40.3896 39.7703L39.6387 40.2068V39.9939C39.2563 40.3437 38.8482 40.6467 38.4111 40.8953L38.4121 40.8963L34.9727 42.8973L34.9697 42.8992L34.9629 42.9031L34.6309 43.0926L34.6191 43.0808C33.4873 43.6329 32.2196 43.7861 31.0293 43.0994C31.023 43.0958 31.0176 43.0918 31.0127 43.0887L27.5518 41.1004L27.4941 41.0672L27.4863 41.0594C26.2237 40.2963 25.7588 38.974 25.7588 37.5994V31.9998C25.7588 31.0576 25.9686 30.1201 26.3486 29.198L26.3496 29.1941L26.4893 28.8631L26.4932 28.8553C26.8483 28.0529 27.3 27.3075 27.8477 26.6228C28.2566 26.0944 28.7045 25.6293 29.1943 25.241L26.0098 23.4119L25.7588 23.2683V19.2664L25.0059 18.8348L24.252 18.4021L25.0049 17.9685L25.7588 17.533V15.8074L27.2568 16.6687L36.9092 11.1014L36.9219 11.0935L36.9395 11.0848ZM39.8486 12.6326C39.3614 12.3518 38.7461 12.3544 37.9082 12.8328L27.7588 18.6892V22.1101L30.7383 23.823L37.4092 19.9744L38.1592 19.5418V22.2889L37.9092 22.4324L30.9893 26.4324L30.9854 26.4353C30.4428 26.742 29.9179 27.2118 29.416 27.8641L29.4102 27.8719C28.9079 28.4997 28.505 29.1905 28.2031 29.9451L28.2012 29.951C27.9022 30.6735 27.7588 31.3554 27.7588 31.9998V37.5994C27.7588 38.5542 28.0608 39.0844 28.5479 39.366L32.0283 41.366L32.0293 41.367C32.5168 41.6481 33.1319 41.6451 33.9707 41.1658L37.4082 39.1678L37.4131 39.1639C37.9604 38.8544 38.4868 38.3942 38.9883 37.7674C39.2383 37.4416 39.4637 37.1032 39.6641 36.7527L39.9121 36.3172L40.3467 36.5672L41.1377 37.0213L44.0791 35.3123V16.4002C44.0791 15.5012 43.8099 14.9828 43.3838 14.6932V14.6922L43.2734 14.6238H43.2725L39.8486 12.6326ZM38.1592 31.8885L37.9092 32.033L34.4688 34.0213L33.7188 34.4539V31.7117L33.9688 31.5672L37.4092 29.5779L38.1592 29.1443V31.8885Z" stroke="white" class="sKurjMEK_6"></path>
<path d="M16.1299 2.07842C17.3358 1.3995 18.7286 1.15176 20.0273 1.89971L20.0264 1.90069L23.5068 3.89971L23.9521 4.15557L23.9209 4.2044C24.9107 4.98051 25.2998 6.15998 25.2998 7.40069V13.8685L25.0488 14.013L21.8203 15.8675V16.5296L23.5068 17.4993L23.9521 17.7552L23.9209 17.804C24.9108 18.5801 25.2998 19.7596 25.2998 21.0003V30.5999C25.2998 31.5397 25.0647 32.486 24.6602 33.4231L24.6611 33.4241C24.3456 34.2068 23.9403 34.9431 23.4512 35.6341L23.458 35.6409L23.1943 35.9886C22.5894 36.7844 21.8839 37.4362 21.0674 37.8997L12.4307 42.8987L12.3994 42.9163L12.3887 42.9202C11.1821 43.5994 9.78965 43.8486 8.49023 43.0989L8.48828 43.098L5.0127 41.1009L4.95508 41.0677L4.94434 41.0569C3.68424 40.2936 3.21979 38.9732 3.21973 37.5999V34.4671L2.46387 34.0335L1.70898 33.5999L2.46387 33.1663L3.21973 32.7317V31.0081L3.96875 31.4388L4.71875 31.8694L7.45215 30.3001L7.9502 30.013L8.2002 29.8694L8.4502 30.013L8.94824 30.3001H8.94727L11.6641 31.8616L15.3398 29.7347V27.6146L12.4316 29.2981L12.4307 29.2972L12.4238 29.3021C11.2868 29.9517 9.97878 30.2233 8.73242 29.6263L8.72363 29.6224L8.71582 29.6185L8.50781 29.5091L8.49023 29.4993L8.48828 29.4983L5.0127 27.5013L4.95508 27.4681L4.94434 27.4573C3.68424 26.694 3.21979 25.3736 3.21973 24.0003V14.4007C3.21973 13.4544 3.43137 12.512 3.81445 11.5862C4.14086 10.7743 4.56299 10.0181 5.08008 9.32061L5.08496 9.31377L5.30273 9.03057L5.30371 9.02959C5.92548 8.22476 6.63639 7.562 7.45215 7.09893L16.0889 2.10186L16.1201 2.08331L16.1299 2.07842ZM8.4541 43.0765C8.45498 43.0771 8.45598 43.0777 8.45703 43.0784L8.4873 43.097C8.47493 43.0897 8.46508 43.0835 8.45898 43.0794C8.45724 43.0782 8.45545 43.0774 8.4541 43.0765ZM19.0303 3.63311C18.543 3.3521 17.927 3.35388 17.0889 3.83233L17.0898 3.83331L8.4502 8.83331L8.44629 8.83526C7.90359 9.14201 7.37891 9.61246 6.87695 10.2649L6.87109 10.2728C6.36877 10.9007 5.96594 11.5913 5.66406 12.346L5.66211 12.3509C5.36311 13.0735 5.21973 13.7562 5.21973 14.4007V23.9905L5.22363 24.1751L5.24805 24.4749C5.33391 25.1366 5.60734 25.5347 6.00977 25.7669H6.00879L9.48926 27.7669H9.49023C9.95 28.032 10.5181 28.0435 11.2773 27.6507L11.4395 27.5618L16.5898 24.5814L17.3398 24.1468V30.888L17.0898 31.0325L11.917 34.0257L11.668 34.1702L11.418 34.0267L8.19922 32.1761L5.21973 33.889V37.5999C5.21979 38.5552 5.52221 39.0851 6.00977 39.3665H6.00879L9.48926 41.3665H9.49023C9.91675 41.6125 10.4407 41.6412 11.127 41.3235L11.4316 41.1653L20.0703 36.1673L20.0742 36.1644C20.6182 35.8568 21.1286 35.3998 21.6016 34.7776L21.6035 34.7757C22.1092 34.1182 22.5138 33.4112 22.8164 32.6546L22.8184 32.6478L22.8213 32.6409C23.1473 31.8885 23.2998 31.2097 23.2998 30.5999V21.0003C23.2998 20.0531 22.9901 19.5219 22.4766 19.2366L22.4697 19.2327C22.2445 19.1029 22.0103 19.0416 21.7598 19.0433L21.7568 18.8001L19.0312 17.2337L19.0303 17.2327C18.543 16.9517 17.927 16.9535 17.0889 17.4319L17.0898 17.4329L11.9297 20.4183L11.1797 20.8519V14.1116L11.4297 13.9681L16.5898 10.9817L17.3398 10.5472V12.7103L20.3193 14.4231L23.2998 12.7103V7.40069C23.2998 6.45351 22.9901 5.92231 22.4766 5.63702L22.4697 5.63311C22.2444 5.5032 22.0104 5.44202 21.7598 5.44366L21.7568 5.20049L19.0312 3.63409L19.0303 3.63311ZM8.44824 29.473C8.44824 29.473 8.44927 29.4733 8.4502 29.4739C8.45153 29.4749 8.4541 29.4768 8.45703 29.4788L8.4873 29.4974C8.47477 29.49 8.46482 29.4837 8.45898 29.4798C8.45572 29.4776 8.4528 29.4761 8.45117 29.4749L8.44922 29.473H8.44824ZM13.1797 15.264V17.3851L16.0889 15.7024L16.0957 15.6976C16.5524 15.4366 17.0368 15.2362 17.5342 15.1292L15.5908 14.013L15.4658 13.9407L13.1797 15.264Z" stroke="white" class="sKurjMEK_7"></path>
<style data-made-with="vivus-instant">.sKurjMEK_0{stroke-dasharray:213 215;stroke-dashoffset:214;animation:sKurjMEK_draw 2500ms linear 0ms forwards;}.sKurjMEK_1{stroke-dasharray:240 242;stroke-dashoffset:241;animation:sKurjMEK_draw 2500ms linear 214ms forwards;}.sKurjMEK_2{stroke-dasharray:240 242;stroke-dashoffset:241;animation:sKurjMEK_draw 2500ms linear 428ms forwards;}.sKurjMEK_3{stroke-dasharray:213 215;stroke-dashoffset:214;animation:sKurjMEK_draw 2500ms linear 642ms forwards;}.sKurjMEK_4{stroke-dasharray:311 313;stroke-dashoffset:312;animation:sKurjMEK_draw 2500ms linear 857ms forwards;}.sKurjMEK_5{stroke-dasharray:282 284;stroke-dashoffset:283;animation:sKurjMEK_draw 2500ms linear 1071ms forwards;}.sKurjMEK_6{stroke-dasharray:213 215;stroke-dashoffset:214;animation:sKurjMEK_draw 2500ms linear 1285ms forwards;}.sKurjMEK_7{stroke-dasharray:303 305;stroke-dashoffset:304;animation:sKurjMEK_draw 2500ms linear 1500ms forwards;}@keyframes sKurjMEK_draw{100%{stroke-dashoffset:0;}}@keyframes sKurjMEK_fade{0%{stroke-opacity:1;}95.1219512195122%{stroke-opacity:1;}100%{stroke-opacity:0;}}</style></svg>
